<?xml version="1.0" encoding="UTF-8"?>
<svg version="1.0" viewBox="0 0 810 810" xmlns="http://www.w3.org/2000/svg">
 <defs>
  <clipPath id="a">
   <path d="m270 135h270v270h-270z"/>
  </clipPath>
  <clipPath id="b">
   <path d="m405.16 135c-74.64 0-135.16 60.52-135.16 135.16s60.52 135.16 135.16 135.16 135.16-60.52 135.16-135.16-60.52-135.16-135.16-135.16z"/>
  </clipPath>
  <clipPath id="c">
   <path d="m202.5 270h270v270h-270z"/>
  </clipPath>
  <clipPath id="d">
   <path d="m337.65 270c-74.64 0-135.15 60.5-135.15 135.15s60.5 135.16 135.15 135.16c74.64 0 135.16-60.5 135.16-135.16 0-74.64-60.52-135.15-135.16-135.15z"/>
  </clipPath>
  <clipPath id="e">
   <path d="m337.5 270h270v270h-270z"/>
  </clipPath>
  <clipPath id="f">
   <path d="m472.65 270c-74.63 0-135.15 60.5-135.15 135.15s60.52 135.16 135.15 135.16c74.65 0 135.15-60.5 135.15-135.16 0-74.64-60.5-135.15-135.15-135.15z"/>
  </clipPath>
 </defs>
 <rect width="810" height="810" ry="405" fill="#f5eee6"/>
 <g clip-path="url(#a)">
  <g clip-path="url(#b)">
   <path d="m405.16 135c-74.64 0-135.16 60.52-135.16 135.15 0 74.65 60.52 135.17 135.16 135.17s135.16-60.52 135.16-135.17c0-74.63-60.52-135.15-135.16-135.15z" fill="none" stroke="#792225" stroke-width="14.28"/>
  </g>
 </g>
 <g clip-path="url(#c)">
  <g clip-path="url(#d)">
   <path d="M337.65 270C263 270 202.5 330.5 202.5 405.15S263 540.3 337.65 540.3c74.64 0 135.15-60.5 135.15-135.15 0-74.64-60.5-135.15-135.15-135.15Zm0 0" fill="none" stroke="#792225" stroke-width="14.28"/>
  </g>
 </g>
 <g clip-path="url(#e)">
  <g clip-path="url(#f)">
   <path d="m472.65 270c-74.63 0-135.15 60.5-135.15 135.15s60.52 135.15 135.15 135.15c74.65 0 135.15-60.5 135.15-135.15 0-74.64-60.5-135.15-135.15-135.15z" fill="none" stroke="#792225" stroke-width="14.28"/>
  </g>
 </g>
 <path d="M243.13 654.75c-13.58 0-23.75-2.94-30.5-8.82-6.75-5.88-10.13-15.18-10.13-27.9 0-7.35 1.38-13.76 4.14-19.24 2.77-5.5 7.15-9.78 13.15-12.86 6.01-3.08 13.79-4.62 23.34-4.62 7.5 0 13.75.4 18.72 1.19 4.97.78 8.33 1.57 10.06 2.36v3.56l2.38 13.03a32.03 32.03 0 0 0-6.7-3.2 62.5 62.5 0 0 0-10.6-2.79 76.03 76.03 0 0 0-13.62-1.12c-5.45 0-9.85.87-13.2 2.6a15.69 15.69 0 0 0-7.35 7.88c-1.54 3.51-2.3 7.92-2.3 13.21 0 5.3.76 9.68 2.3 13.15 1.54 3.47 4.22 6.08 8.05 7.82 3.83 1.73 9.14 2.6 15.93 2.6 6.8 0 12.46-.95 17-2.84 4.54-1.9 7.64-3.71 9.3-5.46v3.56l1.19 11.97c-1.34 1.26-4.6 2.56-9.78 3.91-5.17 1.34-12.3 2.01-21.38 2.01Zm41.94-1.19c.55 0 1.08-.55 1.59-1.65.52-1.1.77-2.93.77-5.45V589.6c0-2.53-.27-4.33-.83-5.4-.55-1.06-1.1-1.63-1.65-1.7h38.85c6.95 0 12.5.86 16.65 2.6 4.14 1.73 7.14 4.28 9 7.64 1.85 3.35 2.78 7.52 2.78 12.49a22 22 0 0 1-1.95 9.48 17.94 17.94 0 0 1-5.4 6.75 22.8 22.8 0 0 1-7.69 3.79v.36c3.16 1.26 6.47 3.73 9.95 7.41a74.2 74.2 0 0 1 9.36 12.25c1.81 2.92 3.47 5.02 4.97 6.28 1.5 1.27 2.65 1.94 3.43 2.01h-29.84c.94-.07 1.71-.6 2.3-1.6.6-.98.38-2.62-.65-4.9a38.96 38.96 0 0 0-6.04-9.85 24.44 24.44 0 0 0-8.22-6.32 24.9 24.9 0 0 0-10.73-2.2h-1.3c-2.45 0-3.87.2-4.27.59-.4.4-.59 1.38-.59 2.96v14.22c0 2.52.28 4.34.82 5.45.55 1.1 1.11 1.65 1.67 1.65Zm25.35-36.83h9.7c4.98 0 8.58-.89 10.79-2.67 2.21-1.78 3.32-4.72 3.32-8.83a9.7 9.7 0 0 0-1.2-4.85 7.84 7.84 0 0 0-3.96-3.32c-1.86-.79-4.44-1.18-7.76-1.18h-10.89c-2.45 0-3.87.12-4.27.35-.4.24-.59 1.14-.59 2.73v14.56c0 1.59.2 2.52.6 2.8.39.27 1.8.41 4.26.41Zm60.41 36.83c.55 0 1.1-.55 1.65-1.65.56-1.1.84-2.93.84-5.45V589.6c0-2.53-.28-4.33-.84-5.4-.55-1.06-1.1-1.63-1.65-1.7H440v3.54l2.38 13.75c-1.98-.87-5.45-1.8-10.43-2.78-4.97-.99-10.98-1.49-18-1.49H396.4c-2.36 0-3.77.18-4.2.54-.44.35-.66 1.35-.66 3.01v8.77c0 1.74.22 2.76.66 3.08.43.32 1.8.47 4.1.47h17.05c4.57 0 8.26-.25 11.07-.76 2.8-.52 4.64-1.05 5.51-1.6-.32 1.5-.68 3.24-1.07 5.21a84.1 84.1 0 0 0-.95 5.68 35.9 35.9 0 0 0-.35 4.51H396.3c-2.29 0-3.66.14-4.1.41-.43.27-.65 1.32-.65 3.14v8.76c0 1.82.2 2.88.6 3.2.4.32 1.78.47 4.15.47h31.97c4.59 0 8.28-.53 11.08-1.6 2.8-1.06 4.65-2.1 5.51-3.13l-2.36 14.21v3.67Zm119.4.6c-7.97 0-14.52-1.26-19.66-3.79a24.58 24.58 0 0 1-11.37-10.96c-2.45-4.78-3.67-10.48-3.67-17.11v-33.42c0-2.52-.26-4.31-.78-5.38-.5-1.06-1.04-1.6-1.6-1.6h22.75c-.56.08-1.1.63-1.6 1.66-.52 1.03-.77 2.8-.77 5.32v33.18c0 5.05.7 8.96 2.13 11.73 1.42 2.75 3.4 4.65 5.92 5.67a23.2 23.2 0 0 0 8.78 1.54h1.3c2.6 0 4.91-.27 6.92-.82 2.01-.55 3.71-1.5 5.1-2.84 1.38-1.34 2.44-3.26 3.2-5.75.75-2.48 1.12-5.66 1.12-9.53v-33.18c0-2.52-.26-4.31-.77-5.38-.52-1.06-1.05-1.6-1.6-1.6h22.75c-.56.08-1.1.65-1.61 1.71-.52 1.07-.77 2.87-.77 5.4v33.29c0 6.63-1.24 12.33-3.73 17.1a24.95 24.95 0 0 1-11.37 10.97c-5.09 2.53-11.58 3.79-19.49 3.79Zm50.12-.6c.54 0 1.07-.55 1.58-1.65.52-1.1.78-2.93.78-5.45V589.6c0-2.53-.28-4.33-.84-5.4-.54-1.06-1.1-1.63-1.65-1.7h38.85c6.72 0 12.15.96 16.3 2.9 4.14 1.93 7.2 4.69 9.17 8.29 1.97 3.59 2.96 7.87 2.96 12.85 0 5.05-.99 9.41-2.96 13.09a19.32 19.32 0 0 1-9.18 8.42c-4.14 1.93-9.57 2.9-16.29 2.9h-18.12v15.5c0 2.53.27 4.35.83 5.46.55 1.1 1.1 1.65 1.65 1.65Zm25.46-35.66h5.92c4.66 0 8.27-.39 10.84-1.17 2.56-.8 4.36-2.02 5.4-3.68 1.02-1.65 1.53-3.82 1.53-6.5 0-2.61-.53-4.7-1.6-6.28-1.06-1.58-2.8-2.7-5.2-3.38-2.42-.68-5.68-1.01-9.79-1.01h-7.1c-2.45 0-3.88.14-4.27.42-.4.27-.6 1.2-.6 2.77v15.53c0 1.57.2 2.52.6 2.84.4.31 1.82.46 4.27.46Zm0 0" fill="#792225"/>
</svg>
