<?xml version="1.0" encoding="UTF-8"?>
<svg version="1.0" viewBox="0 0 810 810" xmlns="http://www.w3.org/2000/svg">
 <rect width="810" height="810" ry="405" fill="#f5eee6"/>
 <path d="m202.5 427.5a22.5 22.5 0 0 1 22.5-22.5h90a22.5 22.5 0 0 1 22.5 22.5v135a22.5 22.5 0 0 1-22.5 22.5h-90a22.5 22.5 0 0 1-22.5-22.5zm270-90a22.5 22.5 0 0 1 22.5-22.5h90a22.5 22.5 0 0 1 22.5 22.5v225a22.5 22.5 0 0 1-22.5 22.5h-90a22.5 22.5 0 0 1-22.5-22.5zm-135-90a22.5 22.5 0 0 1 22.5-22.5h90a22.5 22.5 0 0 1 22.5 22.5v315a22.5 22.5 0 0 1-22.5 22.5h-90a22.5 22.5 0 0 1-22.5-22.5zm-112.5 337.5h315" fill="none" stroke="#792225" stroke-linecap="round" stroke-linejoin="round" stroke-width="45"/>
</svg>
