<svg xmlns="http://www.w3.org/2000/svg" width="676.847" height="150.76" preserveAspectRatio="xMidYMid" viewBox="0 0 507.436 113.07"><defs><clipPath id="a"><path d="M102.863 159.777h102.114v102.09H102.863Zm0 0"/></clipPath><clipPath id="b"><path d="M153.98 159.777c-28.23 0-51.117 22.883-51.117 51.106 0 28.222 22.887 51.101 51.117 51.101 28.227 0 51.114-22.879 51.114-51.101 0-28.223-22.887-51.106-51.114-51.106m0 0"/></clipPath><clipPath id="c"><path d="M77.336 210.82h102.113v102.09H77.336Zm0 0"/></clipPath><clipPath id="d"><path d="M128.45 210.82c-28.231 0-51.114 22.88-51.114 51.106 0 28.222 22.883 51.101 51.113 51.101 28.227 0 51.113-22.879 51.113-51.101 0-28.227-22.886-51.106-51.113-51.106m0 0"/></clipPath><clipPath id="e"><path d="M128.39 210.82h102.114v102.09H128.39Zm0 0"/></clipPath><clipPath id="f"><path d="M179.508 210.82c-28.23 0-51.117 22.88-51.117 51.106 0 28.222 22.886 51.101 51.117 51.101s51.113-22.879 51.113-51.101c0-28.227-22.883-51.106-51.113-51.106m0 0"/></clipPath></defs><g clip-path="url(#a)" transform="translate(-57.225 -117.976)scale(.73838)"><g clip-path="url(#b)"><path fill="none" stroke="#792225" stroke-width="6.487" d="M61.572-.003c-34.005 0-61.574 27.57-61.574 61.57 0 34.009 27.569 61.574 61.574 61.574 34 0 61.569-27.565 61.569-61.574 0-34-27.569-61.57-61.57-61.57zm0 0" transform="matrix(.83018 0 0 .82998 102.865 159.78)"/></g></g><g clip-path="url(#c)" transform="translate(-57.225 -117.976)scale(.73838)"><g clip-path="url(#d)"><path fill="none" stroke="#792225" stroke-width="6.487" d="M61.572-.002C27.567-.002.003 27.564.003 61.568c0 34.008 27.564 61.574 61.569 61.574 34 0 61.569-27.566 61.569-61.574 0-34.004-27.569-61.57-61.57-61.57zm0 0" transform="matrix(.83018 0 0 .82998 77.333 210.822)"/></g></g><g clip-path="url(#e)" transform="translate(-57.225 -117.976)scale(.73838)"><g clip-path="url(#f)"><path fill="none" stroke="#792225" stroke-width="6.487" d="M61.57-.002C27.565-.002-.003 27.564-.003 61.568c0 34.008 27.568 61.574 61.573 61.574s61.57-27.566 61.57-61.574c0-34.004-27.565-61.57-61.57-61.57zm0 0" transform="matrix(.83018 0 0 .82998 128.393 210.822)"/></g></g><path fill="#792225" d="M162.731 91.273q-19.277 0-28.863-8.341-9.584-8.354-9.585-26.397c0-6.951 1.307-13.017 3.92-18.206q3.926-7.789 12.446-12.16 8.523-4.373 22.082-4.372 10.655 0 17.715 1.122 7.057 1.115 9.518 2.235v3.366l2.247 12.324q-2.128-1.457-6.336-3.022c-2.801-1.05-6.141-1.927-10.03-2.634q-5.826-1.067-12.886-1.067-7.739 0-12.5 2.472-4.76 2.459-6.952 7.444-2.18 4.988-2.18 12.498c0 5.007.727 9.158 2.18 12.443q2.19 4.92 7.62 7.392c3.629 1.639 8.653 2.46 15.08 2.46q9.64 0 16.082-2.688 6.445-2.686 8.797-5.157v3.366l1.125 11.321q-1.902 1.792-9.25 3.7-7.344 1.9-20.23 1.901M202.419 90.151q.773 0 1.5-1.566.731-1.575.732-5.157V29.642q0-3.592-.787-5.102c-.516-1.007-1.041-1.546-1.563-1.621h36.763q9.864.002 15.748 2.46 5.88 2.462 8.517 7.23 2.633 4.76 2.634 11.818c0 3.366-.618 6.357-1.846 8.967q-1.848 3.921-5.105 6.389a21.5 21.5 0 0 1-7.278 3.582v.335q4.479 1.802 9.415 7.014c3.285 3.47 6.238 7.335 8.849 11.592 1.719 2.76 3.288 4.745 4.707 5.945q2.136 1.792 3.25 1.9h-28.237q1.335-.108 2.18-1.51.841-1.403-.616-4.653c-1.57-3.588-3.476-6.692-5.72-9.302-2.241-2.61-4.834-4.61-7.782-5.988-2.953-1.387-6.334-2.085-10.147-2.085h-1.231q-3.479.002-4.035.562-.565.564-.563 2.807v13.446q.001 3.582.776 5.157.787 1.566 1.578 1.566zm23.983-34.848h9.186q7.06.001 10.199-2.523 3.141-2.526 3.141-8.353 0-2.58-1.122-4.586-1.125-2.016-3.755-3.141-2.637-1.121-7.34-1.122H226.4q-3.477 0-4.034.334-.565.338-.563 2.579v13.781q-.002 2.247.563 2.645.557.388 4.035.386M283.563 90.151q.788 0 1.566-1.566.785-1.575.787-5.157V29.642c0-2.394-.265-4.096-.787-5.102q-.78-1.51-1.566-1.621h65.456v3.357l2.244 13.002c-1.864-.825-5.155-1.704-9.865-2.633-4.707-.932-10.386-1.402-17.034-1.402h-16.59q-3.36 0-3.984.508-.615.496-.614 2.85v8.298q0 2.46.614 2.913c.415.297 1.708.441 3.877.441h16.137q6.496 0 10.479-.721 3.983-.734 5.215-1.511-.456 2.129-1.016 4.932a76 76 0 0 0-.894 5.373q-.337 2.581-.337 4.263h-29.584q-3.255 0-3.877.39c-.41.256-.614 1.248-.614 2.965v8.289q0 2.582.562 3.031.558.445 3.929.445h30.256q6.507.001 10.478-1.512 3.984-1.51 5.215-2.968l-2.235 13.447v3.475zM396.546 90.711c-7.542 0-13.74-1.191-18.598-3.582-4.857-2.397-8.448-5.853-10.764-10.372q-3.475-6.771-3.476-16.187V28.964q0-3.583-.732-5.094-.726-1.51-1.512-1.511h21.523q-.788.109-1.52 1.563-.726 1.459-.724 5.042v31.381q0 7.167 2.019 11.093 2.015 3.916 5.601 5.374 3.595 1.457 8.301 1.456h1.229q3.702-.001 6.553-.776c1.907-.525 3.513-1.419 4.826-2.688q1.963-1.91 3.022-5.437 1.068-3.528 1.067-9.022v-31.38q0-3.585-.732-5.095-.728-1.51-1.512-1.511h21.523q-.788.108-1.523 1.618c-.482 1.01-.72 2.708-.72 5.105V60.57q0 9.415-3.531 16.187-3.532 6.778-10.762 10.372c-4.813 2.39-10.963 3.582-18.436 3.582zM443.97 90.151q.773 0 1.5-1.566.731-1.575.732-5.157V29.642q0-3.592-.787-5.102-.78-1.51-1.567-1.621h36.766q9.527 0 15.414 2.743 5.88 2.74 8.679 7.845 2.805 5.094 2.806 12.16c0 4.78-.937 8.904-2.806 12.38q-2.8 5.21-8.679 7.963-5.887 2.742-15.414 2.74h-17.152v14.678q0 3.582.787 5.157.788 1.566 1.566 1.566zm24.09-33.734h5.603q6.613.001 10.254-1.114 3.647-1.12 5.105-3.472 1.457-2.354 1.457-6.164 0-3.7-1.512-5.933c-1.01-1.497-2.65-2.561-4.932-3.196q-3.422-.96-9.25-.96h-6.726q-3.476.002-4.035.398-.562.389-.562 2.624v14.687q0 2.235.562 2.686c.372.297 1.72.444 4.035.444m0 0" style="stroke-width:.738379"/></svg>